<svg xmlns="http://www.w3.org/2000/svg" xmlns:xlink="http://www.w3.org/1999/xlink" width="216.902" height="209.475" viewBox="0 0 216.902 209.475"><defs><style>.a{fill:url(#a);}.b{fill:url(#d);}.c{fill:#005ece;}.d{fill:#f1f2f2;}</style><linearGradient id="a" x1="0.5" x2="0.5" y2="1" gradientUnits="objectBoundingBox"><stop offset="0" stop-color="#73cbfd"/><stop offset="0.201" stop-color="#70c5fc"/><stop offset="0.444" stop-color="#67b7fc"/><stop offset="0.709" stop-color="#5a9efb"/><stop offset="0.987" stop-color="#467cfb"/><stop offset="1" stop-color="#467bfb"/></linearGradient><linearGradient id="d" x1="0.323" y1="0.303" x2="0.5" y2="1" gradientUnits="objectBoundingBox"><stop offset="0" stop-color="#f3d038"/><stop offset="1" stop-color="#dd4372"/></linearGradient></defs><g transform="translate(-5.806 -5.723)"><path class="a" d="M44.1,145.135s137.167-.075,138.4-.187A41.12,41.12,0,0,0,193.54,65.611,22.327,22.327,0,0,0,171.284,40.4a21.826,21.826,0,0,0-9.127,1.945,52.368,52.368,0,0,0-101.444,0A21.826,21.826,0,0,0,51.585,40.4,22.327,22.327,0,0,0,29.329,65.611,41.146,41.146,0,0,0,44.1,145.135Z" transform="translate(2.79 2.733)"/><path class="a" d="M74.367,38.2A22.38,22.38,0,0,0,46.5,13.734,22.264,22.264,0,0,1,63.146,38.2a41.12,41.12,0,0,1-11.035,79.337c-1.021.094,9.987.112,11.222,0A41.12,41.12,0,0,0,74.367,38.2Z" transform="translate(121.963 30.146)"/><path class="a" d="M75.611,42.353a21.826,21.826,0,0,1,9.127-1.945c.516,0,1.025.045,1.534.079A51.949,51.949,0,0,0,30.5,3.335,52.368,52.368,0,0,1,75.611,42.353Z" transform="translate(78.114 2.724)"/><path class="b" d="M148.661,79.109v22.443H132.5a52.252,52.252,0,0,1-7.07,17.02l11.446,11.446-15.86,15.86-11.446-11.446a52.253,52.253,0,0,1-17.02,7.07v16.159H70.109V141.5a52.253,52.253,0,0,1-17.02-7.07L41.643,145.878l-15.86-15.86,11.446-11.446a52.252,52.252,0,0,1-7.07-17.02H14V79.109H30.159a52.252,52.252,0,0,1,7.07-17.02L25.783,50.643l15.86-15.86L53.089,46.229a52.252,52.252,0,0,1,17.02-7.07V23H92.552V39.159a52.252,52.252,0,0,1,17.02,7.07l11.446-11.446,15.86,15.86L125.432,62.089a52.253,52.253,0,0,1,7.07,17.02Z" transform="translate(32.895 57.538)"/><ellipse class="c" cx="33.5" cy="34" rx="33.5" ry="34" transform="translate(80.997 114.005)"/><circle class="d" cx="15" cy="15" r="15" transform="translate(98.997 133.005)"/></g></svg>