<?xml version="1.0" encoding="utf-8"?>
<!-- Generator: Adobe Illustrator 15.0.0, SVG Export Plug-In . SVG Version: 6.00 Build 0)  -->
<!DOCTYPE svg PUBLIC "-//W3C//DTD SVG 1.1//EN" "http://www.w3.org/Graphics/SVG/1.1/DTD/svg11.dtd">
<svg version="1.1" id="Layer_1" xmlns="http://www.w3.org/2000/svg" xmlns:xlink="http://www.w3.org/1999/xlink" x="0px" y="0px"
	 width="220px" height="220px" viewBox="0 0 220 220" enable-background="new 0 0 220 220" xml:space="preserve">
<circle fill="#FFFFFF" cx="109.5" cy="109" r="102.5"/>
<g>
	<g>
		<g>
			<path fill="#24205E" d="M110.106,218C51.048,218,3,169.955,3,110.896C3,51.836,51.048,3.789,110.106,3.789
				s107.106,48.047,107.106,107.105C217.213,169.955,169.165,218,110.106,218z M110.106,12.155c-54.446,0-98.74,44.295-98.74,98.739
				c0,54.443,44.294,98.738,98.74,98.738c54.445,0,98.74-44.295,98.74-98.738C208.846,56.45,164.552,12.155,110.106,12.155z"/>
		</g>
	</g>
</g>
<g>
	<path fill="#24205E" d="M163.284,79.933c-5.157,7.697-13.142,14.908-22.541,21.516v41.025c0,0-64.247-12.968-93.177,10.563
		c52.443-20.916,118.868,0.801,118.868,0.801V79.933H163.284z"/>
	<path fill="#24205E" d="M138.354,139.479v-36.391V63.32v-2.395h-3.148c-5.229,17.144-15.578,31.521-27.386,43.218v4.7v11.317
		v12.514c0,0-31.322-3.168-60.252,20.361C76.496,129.507,138.354,139.479,138.354,139.479z"/>
	<path fill="#24205E" d="M105.429,130.285v-8.999v-10.214v-4.62v-61.89v-2.399h-3.151c-9.442,55.439-54.711,100.948-54.711,100.948
		v9.925C76.496,129.507,105.429,130.285,105.429,130.285z"/>
</g>
</svg>
