<svg xmlns="http://www.w3.org/2000/svg" xmlns:xlink="http://www.w3.org/1999/xlink" width="135.306" height="223.284" viewBox="0 0 135.306 223.284"><defs><style>.a{fill:#fff;stroke:#6bbefc;stroke-width:8px;}.b{fill:none;}.c{fill:url(#a);}.d{fill:url(#c);}.e{opacity:0.1;}.f{fill:#83e4fe;}.g{fill:#062772;}</style><linearGradient id="a" x1="0.5" x2="0.5" y2="1" gradientUnits="objectBoundingBox"><stop offset="0" stop-color="#73cbfd"/><stop offset="0.201" stop-color="#70c5fc"/><stop offset="0.444" stop-color="#67b7fc"/><stop offset="0.709" stop-color="#5a9efb"/><stop offset="0.987" stop-color="#467cfb"/><stop offset="1" stop-color="#467bfb"/></linearGradient><linearGradient id="c" x1="0.5" x2="0.5" y2="1" gradientUnits="objectBoundingBox"><stop offset="0" stop-color="#f3d038"/><stop offset="0.995" stop-color="#dd4372"/></linearGradient></defs><g transform="translate(-103.378 4)"><path class="a" d="M196.627,142c0-20.81,38.057-32.643,38.057-78.342a63.653,63.653,0,1,0-127.306,0c0,45.7,38.058,57.532,38.058,78.342Z" transform="translate(0)"/><g transform="translate(107.378)"><path class="b" d="M196.627,142c0-20.81,38.057-32.643,38.057-78.342a63.653,63.653,0,1,0-127.306,0c0,45.7,38.058,57.532,38.058,78.342Z" transform="translate(-107.378)"/></g><g transform="translate(133.796 72.226)"><path class="c" d="M193.967,241.939a3.531,3.531,0,0,1-3.531-3.531c0-18.3-5.267-26.236-10.843-34.642-5.179-7.806-10.534-15.878-10.534-31.6a3.531,3.531,0,0,1,7.062,0c0,13.59,4.336,20.126,9.356,27.694,5.635,8.493,12.02,18.12,12.02,38.545A3.53,3.53,0,0,1,193.967,241.939Z" transform="translate(-169.06 -168.638)"/><path class="c" d="M280.072,241.939a3.531,3.531,0,0,1-3.531-3.531c0-20.426,6.385-30.052,12.02-38.545,5.02-7.568,9.356-14.1,9.356-27.694a3.531,3.531,0,1,1,7.062,0c0,15.719-5.355,23.791-10.534,31.6-5.576,8.406-10.843,16.345-10.843,34.642A3.529,3.529,0,0,1,280.072,241.939Z" transform="translate(-230.508 -168.638)"/></g><path class="d" d="M232.064,186.37a3.532,3.532,0,0,1-2.752-1.318l-8.761-10.895-8.761,10.895a3.531,3.531,0,0,1-2.752,1.318h0a3.532,3.532,0,0,1-2.752-1.318l-11.512-14.316a3.531,3.531,0,0,1,5.5-4.426l8.761,10.895L217.8,166.31a3.531,3.531,0,0,1,5.5,0l8.761,10.895,8.761-10.895a3.531,3.531,0,0,1,5.5,4.426l-11.512,14.316A3.536,3.536,0,0,1,232.064,186.37Z" transform="translate(-49.52 -94.328)"/><path class="e" d="M190.877,310.851a19.386,19.386,0,0,1,2.3,8.862h51.191a19.382,19.382,0,0,1,2.3-8.862Z" transform="translate(-47.737 -177.718)"/><circle class="f" cx="8.679" cy="8.679" r="8.679" transform="translate(162.354 201.926)"/><path class="e" d="M244.416,471.473a8.623,8.623,0,0,0-8.6,9.809,28.225,28.225,0,0,0,17.193,0,8.785,8.785,0,0,0,.082-1.131A8.678,8.678,0,0,0,244.416,471.473Z" transform="translate(-73.384 -269.547)"/><circle class="g" cx="25.696" cy="25.696" r="25.696" transform="translate(145.337 159.213)"/><path class="e" d="M221.7,371.745a25.694,25.694,0,0,0-25.113,31.132h50.227A25.694,25.694,0,0,0,221.7,371.745Z" transform="translate(-50.669 -212.531)"/><path class="f" d="M243.8,363.788a8.72,8.72,0,0,1-8.693,8.694H179.611a8.719,8.719,0,0,1-8.694-8.694V336.783a8.72,8.72,0,0,1,8.694-8.694H235.1a8.72,8.72,0,0,1,8.693,8.694Z" transform="translate(-36.326 -187.573)"/><g transform="translate(134.593 150.856)"><rect class="g" width="72.879" height="7.062"/><rect class="g" width="72.879" height="7.062" transform="translate(0 16.652)"/></g></g></svg>