<svg xmlns="http://www.w3.org/2000/svg" xmlns:xlink="http://www.w3.org/1999/xlink" width="192.118" height="192.519" viewBox="0 0 192.118 192.519"><defs><style>.a{fill:url(#a);}.b{fill:#fff;}.c{fill:url(#c);}.d{fill:#334a5e;opacity:0.2;}.e{fill:#062772;}.f{fill:#83e4fe;}</style><linearGradient id="a" x1="0.5" x2="0.5" y2="1" gradientUnits="objectBoundingBox"><stop offset="0" stop-color="#73cbfd"/><stop offset="0.201" stop-color="#70c5fc"/><stop offset="0.444" stop-color="#67b7fc"/><stop offset="0.709" stop-color="#5a9efb"/><stop offset="0.987" stop-color="#467cfb"/><stop offset="1" stop-color="#467bfb"/></linearGradient><linearGradient id="c" x1="0.5" x2="0.5" y2="1" gradientUnits="objectBoundingBox"><stop offset="0" stop-color="#f3d038"/><stop offset="0.995" stop-color="#dd4372"/></linearGradient></defs><g transform="translate(-0.522)"><path class="a" d="M192.64,96.26v5.214a99.927,99.927,0,0,1-9.225,36.5c-15.642,32.087-48.531,54.547-86.633,54.547A96.26,96.26,0,1,1,192.64,96.26Z"/><circle class="b" cx="76.205" cy="76.205" r="76.205" transform="translate(20.175 20.054)"/><circle class="a" cx="56.552" cy="56.552" r="56.552" transform="translate(39.828 39.707)"/><circle class="b" cx="36.498" cy="36.498" r="36.498" transform="translate(59.882 59.761)"/><circle class="c" cx="16.444" cy="16.444" r="16.444" transform="translate(79.936 79.815)"/><path class="d" d="M336.938,244.483a99.927,99.927,0,0,1-9.225,36.5l-14.038-3.61-4.011-13.637-70.189-18.851a6.473,6.473,0,0,1,3.61-12.434L312.873,251.3,323.3,241.274Z" transform="translate(-144.298 -143.01)"/><path class="e" d="M298.673,96.368a6.8,6.8,0,0,0-9.225,0L236.907,148.91a6.8,6.8,0,0,0,0,9.225h0a6.8,6.8,0,0,0,9.225,0l52.542-52.542A6.8,6.8,0,0,0,298.673,96.368Z" transform="translate(-144.537 -58.265)"/><path class="f" d="M393.025,25.838,369.361,49.1l-5.214-21.257L387.811,4.18Z" transform="translate(-224.049 -2.576)"/><path class="a" d="M399.389,89.081l23.263-23.263L401.395,60.6,377.731,83.867Z" transform="translate(-232.419 -37.341)"/></g></svg>